<svg xmlns="http://www.w3.org/2000/svg" viewBox="0 0 684.62 320.15"><defs><style>.cls-1{fill:#555}.cls-2{fill:#666}</style></defs><g id="Layer_2" data-name="Layer 2"><g id="Layer_1-2" data-name="Layer 1"><path class="cls-1" d="M242.4 102.22V3.4c0-3.64-.32-3.39 3.35-3.39h84C333.17 0 333-.21 333 3.28v105.78c0 4.14-.4 3.71 3.74 3.72h101.25c3.91 0 3.56-.4 3.57 3.66v84.67c0 3.47.23 3.24-3.26 3.24H245.6c-3.48 0-3.2.18-3.2-3.3zM0 102.23V3.4C0-.25-.3 0 3.35 0h83.5c3.59 0 3.31-.28 3.32 3.42v197.66c0 3.48.25 3.27-3.23 3.27H3.2c-3.48 0-3.19.16-3.19-3.3Q0 151.64 0 102.23zM109 102.24V3.66c0-4-.33-3.65 3.58-3.65h83.26c3.6 0 3.52-.41 3.52 3.51v197.4c0 3.77 0 3.43-3.37 3.43h-83.75c-3.26 0-3.26 0-3.26-3.29zM584.82 204.35h-96.24c-3.75 0-3.46.36-3.47-3.52v-84.7c0-3.71-.2-3.35 3.39-3.35h192.72c3.38 0 3.4-.39 3.4 3.4v84.93c0 3.61-.08 3.24-3.32 3.24z"/><path class="cls-1" d="M351 46.08V4.34 2.67c0-2.64 0-2.66 2.66-2.66h86.37c1 0 1.5.39 1.47 1.41V89c0 3.46.25 3.25-3.25 3.25h-84.18c-3 0-3.05 0-3.05-3Q351 67.66 351 46.08zM485.11 46V4.32 2.4c0-2.36 0-2.39 2.43-2.39H574.36a1 1 0 011 1.06v88.72c0 2.36 0 2.39-2.42 2.39H486.12a1 1 0 01-1-1.06c0-.72-.05-1.44-.05-2.16zM594.24 46.1V2.94c0-2.92 0-2.93 2.85-2.93h85.38c2 .07 2.08.13 2.15 2.25V88.58c0 4.06.16 3.64-3.61 3.64h-83.23c-3.89 0-3.53.3-3.53-3.44q-.03-21.34-.01-42.68z"/><path class="cls-2" d="M20.72 282.1V277h27.8v4.1a59.06 59.06 0 00-8.13 11.6 70.73 70.73 0 00-6.22 14.88 55.49 55.49 0 00-2 11.81h-5.45a52.8 52.8 0 012-12.25 64.49 64.49 0 015.46-13.84 59.3 59.3 0 017.57-11.23zM113.94 305.62l5.36-.47a11.9 11.9 0 001.78 5.29 9.57 9.57 0 004.32 3.34 16.34 16.34 0 006.59 1.27 15.88 15.88 0 005.74-1 8 8 0 003.71-2.65 6.17 6.17 0 001.21-3.68 5.6 5.6 0 00-1.17-3.53 8.6 8.6 0 00-3.87-2.53 75.57 75.57 0 00-7.64-2.1 39.08 39.08 0 01-8.29-2.68 11.66 11.66 0 01-4.59-4 9.76 9.76 0 01-1.51-5.35 10.9 10.9 0 011.85-6.07 11.44 11.44 0 015.39-4.3 20.56 20.56 0 017.88-1.46 21.44 21.44 0 018.42 1.54 12.13 12.13 0 015.61 4.52 13 13 0 012.11 6.77l-5.45.41a8.77 8.77 0 00-3-6.15q-2.53-2.08-7.49-2.08c-3.43 0-5.94.63-7.51 1.89a5.68 5.68 0 00-2.36 4.55 4.88 4.88 0 001.67 3.81q1.63 1.5 8.57 3.06a57.37 57.37 0 019.51 2.74 13.1 13.1 0 015.53 4.38 10.7 10.7 0 011.79 6.11 11.65 11.65 0 01-2 6.46 13 13 0 01-5.64 4.72 19.69 19.69 0 01-8.28 1.68 24.61 24.61 0 01-9.77-1.7 13.59 13.59 0 01-6.18-5.11 14.54 14.54 0 01-2.29-7.68zM226.82 319.42v-37.88h-14.15v-5.07h34.05v5.07h-14.21v37.88zM309.73 298.5q0-10.69 5.74-16.74a19.54 19.54 0 0114.83-6.05 20.6 20.6 0 0110.7 2.84 18.62 18.62 0 017.28 7.93 25.7 25.7 0 012.53 11.52 25.25 25.25 0 01-2.64 11.69 18 18 0 01-7.47 7.81 21.31 21.31 0 01-10.43 2.65 20.25 20.25 0 01-10.84-2.93 18.86 18.86 0 01-7.24-8 24.21 24.21 0 01-2.46-10.72zm5.86.09q0 7.77 4.18 12.23a14.56 14.56 0 0021 0Q345 306.27 345 298a22 22 0 00-1.77-9.15 13.66 13.66 0 00-5.19-6.06 14 14 0 00-7.66-2.16 14.51 14.51 0 00-10.39 4.15q-4.4 4.11-4.4 13.81zM418.07 319.42v-42.95h5.83l22.56 33.72v-33.72h5.45v42.95h-5.83l-22.56-33.75v33.75zM521.58 319.42v-42.95h31v5.07h-25.32v13.15H551v5h-23.74v14.62h26.37v5.07zM631.55 305.62l5.36-.47a11.78 11.78 0 001.77 5.29 9.68 9.68 0 004.32 3.34 16.38 16.38 0 006.59 1.27 15.93 15.93 0 005.75-1 8 8 0 003.7-2.65 6.18 6.18 0 001.22-3.68 5.6 5.6 0 00-1.17-3.53 8.6 8.6 0 00-3.87-2.53 75.23 75.23 0 00-7.65-2.1 39.28 39.28 0 01-8.29-2.68 11.56 11.56 0 01-4.58-4 9.76 9.76 0 01-1.51-5.35 10.89 10.89 0 011.81-6.03 11.44 11.44 0 015.39-4.3 20.61 20.61 0 017.89-1.46 21.44 21.44 0 018.42 1.54 12.13 12.13 0 015.61 4.52 13 13 0 012.11 6.77L659 289a8.77 8.77 0 00-3-6.15c-1.68-1.39-4.18-2.08-7.48-2.08s-5.94.63-7.52 1.89a5.66 5.66 0 00-2.35 4.55 4.85 4.85 0 001.67 3.81q1.63 1.5 8.57 3.06a57.48 57.48 0 019.5 2.74 13.14 13.14 0 015.54 4.38 10.7 10.7 0 011.79 6.11 11.66 11.66 0 01-2 6.46 12.89 12.89 0 01-5.64 4.72 19.68 19.68 0 01-8.27 1.68 24.55 24.55 0 01-9.77-1.7 13.59 13.59 0 01-6.18-5.11 14.45 14.45 0 01-2.31-7.74z"/></g></g></svg>